<?xml version="1.0" encoding="UTF-8" standalone="no"?>
<!-- Created with Inkscape (http://www.inkscape.org/) -->
<svg
   xmlns:dc="http://purl.org/dc/elements/1.1/"
   xmlns:cc="http://creativecommons.org/ns#"
   xmlns:rdf="http://www.w3.org/1999/02/22-rdf-syntax-ns#"
   xmlns:svg="http://www.w3.org/2000/svg"
   xmlns="http://www.w3.org/2000/svg"
   xmlns:sodipodi="http://sodipodi.sourceforge.net/DTD/sodipodi-0.dtd"
   xmlns:inkscape="http://www.inkscape.org/namespaces/inkscape"
   width="297mm"
   height="210mm"
   id="svg2425"
   sodipodi:version="0.32"
   inkscape:version="0.46"
   sodipodi:docname="odinprocessingsystem.svg"
   inkscape:output_extension="org.inkscape.output.svg.inkscape"
   version="1.0"
   style="enable-background:new">
  <defs
     id="defs2427" />
  <sodipodi:namedview
     inkscape:document-units="mm"
     pagecolor="#ffffff"
     bordercolor="#666666"
     borderopacity="1.0"
     inkscape:pageopacity="0.0"
     inkscape:pageshadow="2"
     inkscape:zoom="0.77064723"
     inkscape:cx="292.46754"
     inkscape:cy="337.99871"
     inkscape:current-layer="layer1"
     id="namedview2429"
     showgrid="true"
     inkscape:snap-global="true"
     inkscape:snap-bbox="true"
     inkscape:window-width="1279"
     inkscape:window-height="999"
     inkscape:window-x="0"
     inkscape:window-y="0" />
  <metadata
     id="metadata2431">
    <rdf:RDF>
      <cc:Work
         rdf:about="">
        <dc:format>image/svg+xml</dc:format>
        <dc:type
           rdf:resource="http://purl.org/dc/dcmitype/StillImage" />
        <dc:title>Odin Processing System</dc:title>
        <dc:date>2008-10-22</dc:date>
        <dc:creator>
          <cc:Agent>
            <dc:title>Joakim Möller</dc:title>
          </cc:Agent>
        </dc:creator>
        <dc:description>The processing system used at Chalmers University of Technology to process data from the Odin satellite</dc:description>
        <dc:language>en-GB</dc:language>
        <dc:source>http://svn.rss.chalmers.se/svn/odinsmr/hermod/trunk/Documentation/odinprocessingsystem.svg</dc:source>
        <cc:license
           rdf:resource="http://creativecommons.org/licenses/by-sa/3.0/" />
        <dc:rights>
          <cc:Agent>
            <dc:title>Chalmers tekniska högskola AB</dc:title>
          </cc:Agent>
        </dc:rights>
        <dc:publisher>
          <cc:Agent>
            <dc:title>Chalmers tekniska högskola AB</dc:title>
          </cc:Agent>
        </dc:publisher>
      </cc:Work>
      <cc:License
         rdf:about="http://creativecommons.org/licenses/by-sa/3.0/">
        <cc:permits
           rdf:resource="http://creativecommons.org/ns#Reproduction" />
        <cc:permits
           rdf:resource="http://creativecommons.org/ns#Distribution" />
        <cc:requires
           rdf:resource="http://creativecommons.org/ns#Notice" />
        <cc:requires
           rdf:resource="http://creativecommons.org/ns#Attribution" />
        <cc:permits
           rdf:resource="http://creativecommons.org/ns#DerivativeWorks" />
        <cc:requires
           rdf:resource="http://creativecommons.org/ns#ShareAlike" />
      </cc:License>
    </rdf:RDF>
  </metadata>
  <g
     inkscape:label="Puzzle"
     inkscape:groupmode="layer"
     id="layer1"
     style="opacity:0.83620689;display:inline"
     sodipodi:insensitive="true">
    <path
       style="fill:#803300;stroke:#000000;stroke-width:0.99921262;stroke-miterlimit:4;stroke-dasharray:none;stroke-opacity:1"
       d="M 6.6505433,6.7428223 L 6.6505433,172.18032 L 6.6505433,193.43032 L 6.6505433,331.64907 L 166.08805,331.64907 L 166.08805,237.74282 C 157.40213,237.60604 148.31993,241.36678 141.8693,246.83657 C 131.48848,256.39204 112.63383,256.47434 104.3068,244.36782 C 97.390975,231.84926 98.257555,216.58755 99.963045,202.80532 C 100.40014,190.94346 110.34004,180.17287 122.3693,180.11782 C 126.51922,179.95195 130.6698,180.82858 134.3693,182.71157 C 142.85555,186.01376 145.58517,196.45739 153.96305,199.61782 C 157.74321,200.35887 161.91932,201.36671 166.08805,201.83657 L 166.08805,193.43032 L 166.08805,172.18032 L 166.08805,109.43032 C 169.25804,109.47738 172.40042,109.75875 175.52555,110.21157 C 178.77373,110.72336 182.07316,111.25693 185.1193,112.39907 C 186.90909,113.06735 188.57461,114.02841 189.9318,115.24282 C 193.05809,117.93431 195.14108,121.32383 197.90055,124.27407 C 200.09556,126.62676 202.7928,128.67586 205.9943,129.93032 C 209.25965,131.23008 213.03741,131.65323 216.5568,130.99282 C 220.45526,130.27805 223.98415,128.29476 226.46305,125.61782 C 228.81988,123.0859 230.18416,119.93776 230.90055,116.77407 C 231.71917,112.8638 232.03843,108.88724 232.40055,104.93032 C 233.25494,96.624861 232.52278,88.215131 230.40055,80.086572 C 229.48755,76.523352 227.39257,73.073572 224.02555,70.805322 C 218.80641,67.302312 211.34775,66.623852 205.33805,68.961572 C 201.24598,70.609592 197.94692,73.326512 194.4943,75.774072 C 188.45468,80.291732 180.72869,83.146061 172.7443,83.555321 C 170.53324,83.688601 168.28402,83.575731 166.08805,83.274071 L 166.08805,6.7428223 L 6.6505433,6.7428223 z"
       id="rect2474" />
    <path
       style="fill:#ff7f2a;stroke:#000000;stroke-width:0.99921262;stroke-miterlimit:4;stroke-dasharray:none;stroke-opacity:1"
       d="M 337.52555,148.33657 L 337.52555,172.18032 L 337.52555,215.21157 C 343.73539,214.95641 350.01085,214.13609 354.9318,210.33657 C 361.12577,202.34218 368.91981,193.52578 379.96305,193.61782 C 389.15549,193.16756 398.31173,198.64548 401.8693,207.21157 C 406.32945,221.28182 406.4591,236.89327 402.8693,251.18032 C 399.23148,266.83315 378.39863,271.75773 366.1193,263.02407 C 357.97617,256.5808 348.26968,250.76875 337.52555,251.27407 L 337.52555,331.64907 L 502.9943,331.64907 L 529.90055,331.64907 L 578.6193,331.64907 C 577.81892,326.18978 575.33573,321.21596 570.6193,317.86782 C 563.20939,313.62967 556.71394,305.95975 557.6193,296.80532 C 559.40212,279.16502 576.52764,265.94893 593.4943,264.27407 C 603.6021,263.89162 614.05254,267.32408 621.3068,274.49282 C 632.86387,285.64971 632.30962,305.92222 620.46305,316.68032 C 615.78958,320.56774 614.57086,326.02832 614.65055,331.64907 L 662.4318,331.64907 L 662.4318,172.18032 L 662.4318,148.33657 C 554.12971,148.33657 445.82763,148.33657 337.52555,148.33657 z"
       id="rect2476" />
    <path
       style="fill:#ffb380;stroke:#000000;stroke-width:0.99921262;stroke-miterlimit:4;stroke-dasharray:none;stroke-opacity:1"
       d="M 668.4318,6.7428223 L 668.4318,56.367822 C 674.5249,56.100829 680.71227,55.322415 685.46305,51.555322 C 691.55184,43.741416 699.08106,35.093149 709.8068,34.836572 C 719.23085,34.201683 728.76069,39.576683 732.40055,48.430322 C 736.84232,62.430792 737.00205,77.985072 733.4318,92.211571 C 730.03787,107.64664 709.65691,112.9189 697.33805,104.64907 C 688.9186,98.337891 679.45625,91.971961 668.4318,92.524071 L 668.4318,172.18032 L 668.4318,252.46157 L 668.4318,331.64907 L 811.1193,331.64907 C 810.02999,325.68823 807.38601,319.9135 803.83805,315.43032 C 796.48009,307.29837 792.95641,295.10263 797.83805,284.83657 C 802.7469,272.84054 817.18371,271.17128 828.4943,270.58657 C 836.43065,270.48736 844.5153,271.14037 852.2443,272.86782 C 866.44242,275.97943 873.59584,293.72103 866.6818,306.18032 C 863.40958,314.7224 852.79472,317.38815 849.77555,325.86782 C 849.4108,327.71746 848.98648,329.66406 848.58805,331.64907 L 866.4943,331.64907 L 993.33812,331.64907 L 993.33812,172.18032 L 993.33812,6.7428223 L 914.15055,6.7428223 L 833.8693,6.7428223 L 668.4318,6.7428223 z"
       id="rect2478" />
    <path
       style="fill:#ffccaa;stroke:#000000;stroke-width:0.99921262;stroke-miterlimit:4;stroke-dasharray:none;stroke-opacity:1"
       d="M 594.33805,269.24282 C 592.85087,269.27844 591.36398,269.576 589.90055,269.86782 C 584.62566,271.02041 579.56131,273.40642 575.08805,276.83657 C 571.58314,279.54881 568.41985,282.8929 565.96305,286.86782 C 564.03896,290.06155 562.60414,293.82772 562.58805,297.77407 C 562.56622,301.35428 563.67593,305.00636 565.90055,307.55532 C 568.42989,310.5348 571.73265,312.32576 574.65055,314.71157 C 576.99591,316.56216 579.13478,318.83357 580.58805,321.68032 C 583.12719,326.42073 584.12521,332.11963 583.8068,337.64907 L 502.9943,337.64907 L 502.9943,490.58657 C 507.25196,490.54656 511.33091,489.59401 514.77555,486.77407 C 521.86882,479.36194 531.92575,473.90979 542.52555,475.68032 C 563.42152,477.9012 574.84875,503.35284 567.27555,521.80532 C 561.99494,535.58713 548.7458,548.97571 532.9318,547.33657 C 523.51646,546.69563 518.68778,537.87502 513.33805,531.49282 C 510.26841,528.91605 506.7274,527.3828 502.9943,526.68032 L 502.9943,537.96157 L 502.9943,662.52407 L 724.8693,662.52407 L 853.9943,662.52407 L 993.33812,662.52407 L 993.33812,503.08657 L 993.33812,337.64907 L 863.08805,337.64907 L 842.6818,337.64907 C 842.81971,336.0126 843.00959,334.36263 843.2443,332.74282 C 843.75609,329.49464 844.25838,326.22645 845.40055,323.18032 C 846.06883,321.39053 847.02987,319.725 848.2443,318.36782 C 850.93579,315.24153 854.32528,313.12728 857.27555,310.36782 C 859.62824,308.17281 861.70859,305.50681 862.96305,302.30532 C 864.26281,299.03997 864.65472,295.23095 863.9943,291.71157 C 863.27953,287.81311 861.29623,284.31546 858.6193,281.83657 C 856.08738,279.47974 852.93924,278.11545 849.77555,277.39907 C 845.86528,276.58045 841.88874,276.26121 837.9318,275.89907 C 829.62634,275.04468 821.2166,275.77683 813.08805,277.89907 C 809.52483,278.81207 806.10629,280.90704 803.83805,284.27407 C 800.33504,289.49321 799.62533,296.95187 801.96305,302.96157 C 803.61107,307.05364 806.35925,310.35271 808.8068,313.80532 C 813.32446,319.84494 816.14755,327.57092 816.5568,335.55532 C 816.59868,336.25014 816.61938,336.95082 816.6193,337.64907 L 750.9943,337.64907 L 668.4318,337.64907 L 610.1193,337.64907 C 609.7685,334.47003 609.62023,331.25723 609.7443,328.05532 C 609.92149,324.70057 610.86355,321.39374 612.5568,318.64907 C 614.11936,316.06931 616.19312,314.01146 618.08805,311.77407 C 620.18873,309.36434 622.19761,306.70909 623.3068,303.49282 C 625.59932,297.10865 625.04161,289.48866 621.90055,283.61782 C 620.12973,280.26082 617.59954,277.48953 614.71305,275.43032 C 609.62246,271.68426 603.60819,269.79546 597.6193,269.33657 C 596.52191,269.26276 595.43741,269.2142 594.33805,269.24282 z"
       id="rect2482" />
    <path
       style="fill:#aa4400;stroke:#000000;stroke-width:0.99921262;stroke-miterlimit:4;stroke-dasharray:none;stroke-opacity:1"
       d="M 6.6505433,337.64907 L 6.6505433,503.08657 L 6.6505433,534.55532 L 6.6505433,662.52407 L 166.08805,662.52407 L 166.08805,582.43032 C 157.58986,582.75818 148.90438,586.6777 142.6818,592.11782 C 132.28163,601.1635 113.90169,600.86243 105.83805,588.89907 C 99.112385,576.61152 99.879075,561.63033 101.4943,548.08657 C 101.8564,536.29608 111.21865,525.27456 123.3068,524.80532 C 128.00142,524.51663 132.73147,525.55679 136.83805,527.83657 C 145.07909,531.40451 147.68975,542.27249 156.58805,544.55532 C 159.55295,545.10223 162.79664,545.80876 166.08805,546.27407 L 166.08805,534.55532 L 166.08805,503.08657 L 166.08805,466.36782 C 167.38959,466.29852 168.69792,466.28968 169.9943,466.36782 C 177.9787,466.77709 185.73593,469.60016 191.77555,474.11782 C 195.22816,476.56539 198.49598,479.31355 202.58805,480.96157 C 208.59775,483.29931 216.05641,482.58958 221.27555,479.08657 C 224.64258,476.81829 226.73755,473.36854 227.65055,469.80532 C 229.77279,461.67676 230.50494,453.26703 229.65055,444.96157 C 229.28841,441.00465 228.96917,437.02809 228.15055,433.11782 C 227.43417,429.95415 226.06988,426.83724 223.71305,424.30532 C 221.23416,421.62838 217.73651,419.64509 213.83805,418.93032 C 210.31865,418.26992 206.5409,418.66181 203.27555,419.96157 C 200.07406,421.21605 197.37681,423.29638 195.1818,425.64907 C 192.42232,428.5993 190.30809,431.98883 187.1818,434.68032 C 185.82461,435.89473 184.19034,436.82454 182.40055,437.49282 C 179.3544,438.63495 176.05498,439.16853 172.8068,439.68032 C 170.58025,440.00294 168.34257,440.23739 166.08805,440.36782 L 166.08805,337.64907 L 6.6505433,337.64907 z"
       id="rect2488" />
    <path
       style="fill:#d45500;fill-opacity:1;stroke:#000000;stroke-width:0.99921262;stroke-miterlimit:4;stroke-dasharray:none;stroke-opacity:1"
       d="M 172.08805,6.7428223 L 172.08805,78.617822 C 180.57459,78.252622 189.2507,74.322712 195.46305,68.930322 C 206.19647,59.519799 225.72646,60.336192 233.08805,73.524072 C 239.4383,87.747511 238.33397,104.25897 235.4318,119.24282 C 232.2872,133.45811 214.49578,140.62579 201.9943,133.61782 C 193.5779,130.29574 190.85853,119.89296 182.52555,116.77407 C 179.23762,116.13858 175.67446,115.29913 172.08805,114.77407 L 172.08805,172.18032 L 172.08805,206.93032 C 168.35799,206.98226 164.60846,206.6818 160.9318,206.14907 C 157.68362,205.63728 154.41546,205.13496 151.3693,203.99282 C 149.57951,203.32454 147.91398,202.3635 146.5568,201.14907 C 143.43051,198.45758 141.34752,195.06806 138.58805,192.11782 C 136.39304,189.76513 133.6958,187.71605 130.4943,186.46157 C 127.22895,185.16181 123.41994,184.73867 119.90055,185.39907 C 116.00209,186.11384 112.50445,188.09712 110.02555,190.77407 C 107.66872,193.30599 106.30444,196.45414 105.58805,199.61782 C 104.76943,203.52809 104.45018,207.50465 104.08805,211.46157 C 103.23366,219.76703 103.96581,228.17675 106.08805,236.30532 C 107.00105,239.86854 109.09602,243.28707 112.46305,245.55532 C 117.68219,249.05833 125.14084,249.76803 131.15055,247.43032 C 135.24262,245.7823 138.5417,243.06538 141.9943,240.61782 C 148.03392,236.10016 155.75991,233.24583 163.7443,232.83657 C 166.52356,232.66904 169.36216,232.84222 172.08805,233.36782 L 172.08805,272.89907 L 172.08805,377.05532 L 172.08805,434.80532 C 176.78112,434.30017 181.32379,433.18074 184.90055,429.99282 C 190.84073,422.25023 198.31017,413.89023 208.90055,413.64907 C 218.42999,412.93927 228.1177,418.58144 231.6193,427.58657 C 235.54096,440.08553 235.86235,453.88342 233.4943,466.77407 C 232.55535,477.25683 224.00368,486.33052 213.3693,487.11782 C 202.49745,489.0657 193.59137,481.65323 185.3068,475.89907 C 181.48177,473.62689 176.8226,472.08417 172.08805,471.52407 L 172.08805,530.02407 L 172.08805,551.61782 C 168.89677,551.57383 165.70286,551.29243 162.5568,550.83657 C 159.30862,550.32478 156.0092,549.79124 152.96305,548.64907 C 151.17326,547.98079 149.53899,547.05099 148.1818,545.83657 C 145.05551,543.14508 142.94128,539.75558 140.1818,536.80532 C 137.98679,534.45263 135.28956,532.37228 132.08805,531.11782 C 128.8227,529.81806 125.04494,529.42615 121.52555,530.08657 C 117.62709,530.80134 114.09821,532.78463 111.6193,535.46157 C 109.26247,537.99349 107.92945,541.11038 107.21305,544.27407 C 106.39443,548.18434 106.04392,552.16088 105.6818,556.11782 C 104.82741,564.42328 105.55956,572.83301 107.6818,580.96157 C 108.5948,584.52479 110.72103,587.97458 114.08805,590.24282 C 119.30719,593.74583 126.76585,594.45554 132.77555,592.11782 C 136.86762,590.4698 140.13544,587.72161 143.58805,585.27407 C 149.62767,580.75641 157.3849,577.93332 165.3693,577.52407 C 167.61081,577.38896 169.86308,577.46197 172.08805,577.77407 L 172.08805,662.52407 L 331.52555,662.52407 L 331.52555,511.74282 C 335.68905,511.58636 339.85769,511.898 343.96305,512.49282 C 347.21123,513.00461 350.51064,513.53819 353.5568,514.68032 C 355.34659,515.3486 356.98084,516.27837 358.33805,517.49282 C 361.46434,520.18431 363.57859,523.57384 366.33805,526.52407 C 368.53306,528.87676 371.19906,530.95709 374.40055,532.21157 C 377.6659,533.51133 381.47492,533.90322 384.9943,533.24282 C 388.89276,532.52805 392.39041,530.54473 394.8693,527.86782 C 397.22613,525.3359 398.59042,522.18774 399.3068,519.02407 C 400.12542,515.1138 400.44466,511.16848 400.8068,507.21157 C 401.66119,498.90611 400.92905,490.49635 398.8068,482.36782 C 397.8938,478.8046 395.79883,475.35485 392.4318,473.08657 C 387.21266,469.58356 379.754,468.87386 373.7443,471.21157 C 369.65223,472.85959 366.38441,475.60775 362.9318,478.05532 C 356.89218,482.57298 349.13495,485.39605 341.15055,485.80532 C 337.9261,485.99969 334.647,485.73768 331.52555,484.99282 L 331.52555,337.64907 L 331.52555,272.89907 L 331.52555,246.99282 C 334.41539,246.38233 337.40813,246.15808 340.3693,246.33657 C 348.35368,246.74583 356.11093,249.60016 362.15055,254.11782 C 365.60318,256.56537 368.87098,259.2823 372.96305,260.93032 C 378.97276,263.26805 386.43141,262.58958 391.65055,259.08657 C 395.01757,256.81831 397.1438,253.36854 398.0568,249.80532 C 400.17903,241.67677 400.91119,233.26703 400.0568,224.96157 C 399.69467,221.00464 399.37542,217.02809 398.5568,213.11782 C 397.8404,209.95414 396.47613,206.80599 394.1193,204.27407 C 391.64039,201.59713 388.11151,199.61384 384.21305,198.89907 C 380.69365,198.23866 376.9159,198.66181 373.65055,199.96157 C 370.44904,201.21604 367.75181,203.26513 365.5568,205.61782 C 362.79732,208.56806 360.68309,211.95758 357.5568,214.64907 C 356.19961,215.86349 354.56534,216.82454 352.77555,217.49282 C 349.7294,218.63497 346.42998,219.16853 343.1818,219.68032 C 339.3343,220.2378 335.42858,220.52093 331.52555,220.43032 L 331.52555,172.18032 L 331.52555,143.33657 C 441.82763,143.33657 552.12972,143.33657 662.4318,143.33657 C 662.4318,124.93032 662.4318,106.52407 662.4318,88.117821 C 665.20585,87.568111 668.0682,87.384591 670.90055,87.555321 C 678.88492,87.964581 686.64218,90.787661 692.6818,95.305321 C 696.13442,97.752881 699.40223,100.50105 703.4943,102.14907 C 709.504,104.48679 716.96266,103.77708 722.1818,100.27407 C 725.54881,98.005811 727.67505,94.587291 728.58805,91.024071 C 730.71027,82.895511 731.44244,74.485782 730.58805,66.180322 C 730.22594,62.223402 729.90667,58.246842 729.08805,54.336572 C 728.37164,51.172893 727.00738,48.024742 724.65055,45.492822 C 722.17163,42.815879 718.64276,40.832592 714.7443,40.117822 C 711.22493,39.457409 707.44715,39.849312 704.1818,41.149072 C 700.98028,42.403544 698.28306,44.483882 696.08805,46.836572 C 693.32859,49.786815 691.21434,53.176332 688.08805,55.867822 C 686.73088,57.082245 685.09659,58.043292 683.3068,58.711572 C 680.26064,59.853712 676.96123,60.356032 673.71305,60.867822 C 669.9893,61.407382 666.20955,61.711282 662.4318,61.649072 C 662.4318,43.346989 662.4318,25.044905 662.4318,6.7428223 C 552.12972,6.7428223 441.82763,6.7428223 331.52555,6.7428223 L 282.1193,6.7428223 L 172.08805,6.7428223 z"
       id="rect2480" />
    <path
       style="fill:#ff6600;stroke:#000000;stroke-width:0.99921262;stroke-miterlimit:4;stroke-dasharray:none;stroke-opacity:1;display:inline"
       d="M 337.52555,337.64907 L 337.52555,480.86782 C 346.91059,481.4252 356.97872,477.22342 363.83805,471.21157 C 374.28985,462.11899 392.78947,462.47553 400.77555,474.58657 C 407.80201,487.88315 406.6279,503.94516 404.52555,518.39907 C 403.12709,534.15096 384.01194,543.63207 370.4318,535.89907 C 361.66472,532.50715 359.09088,521.15993 349.9318,518.77407 C 346.09196,518.08491 341.78609,517.08016 337.52555,516.71157 L 337.52555,523.21157 L 337.52555,662.52407 L 496.9943,662.52407 L 496.9943,523.21157 L 496.9943,521.30532 C 502.2675,521.12501 507.67266,522.14007 512.1818,524.55532 C 515.02855,526.00859 517.29997,528.14746 519.15055,530.49282 C 521.53636,533.41072 523.32733,536.74473 526.3068,539.27407 C 528.85576,541.49869 532.50782,542.57715 536.08805,542.55532 C 540.0344,542.53923 543.80055,541.10441 546.9943,539.18032 C 550.96922,536.72352 554.31329,533.56024 557.02555,530.05532 C 560.4557,525.58206 562.84169,520.51771 563.9943,515.24282 C 564.28612,513.77939 564.5524,512.2925 564.58805,510.80532 C 564.61667,509.70596 564.59937,508.62146 564.52555,507.52407 C 564.06666,501.53518 562.17784,495.52091 558.4318,490.43032 C 556.37259,487.54383 553.60131,485.01364 550.2443,483.24282 C 544.37346,480.10176 536.75347,479.54405 530.3693,481.83657 C 527.15303,482.94576 524.49779,484.95464 522.08805,487.05532 C 519.85066,488.95025 517.79281,491.02401 515.21305,492.58657 C 512.46838,494.27982 509.16153,495.22189 505.8068,495.39907 C 502.86773,495.51295 499.91664,495.41078 496.9943,495.11782 L 496.9943,337.64907 L 337.52555,337.64907 z"
       id="rect2502" />
  </g>
  <g
     inkscape:groupmode="layer"
     id="layer2"
     inkscape:label="sym+"
     style="display:inline"
     sodipodi:insensitive="true">
    <text
       xml:space="preserve"
       style="font-size:18px;font-style:normal;font-variant:normal;font-weight:normal;font-stretch:normal;text-align:start;line-height:125%;writing-mode:lr-tb;text-anchor:start;fill:#cccccc;fill-opacity:1;stroke:none;stroke-width:1px;stroke-linecap:butt;stroke-linejoin:miter;stroke-opacity:1;font-family:Bitstream Vera Sans;-inkscape-font-specification:Bitstream Vera Sans"
       x="16.388845"
       y="96.776733"
       id="text3424"
       sodipodi:linespacing="125%"><tspan
         sodipodi:role="line"
         id="tspan3426"
         x="16.388845"
         y="96.776733">Command line </tspan><tspan
         sodipodi:role="line"
         x="16.388845"
         y="119.27673"
         id="tspan3462">interface</tspan></text>
    <text
       xml:space="preserve"
       style="font-size:18px;font-style:normal;font-variant:normal;font-weight:normal;font-stretch:normal;text-align:start;line-height:125%;writing-mode:lr-tb;text-anchor:start;fill:#000000;fill-opacity:1;stroke:none;stroke-width:1px;stroke-linecap:butt;stroke-linejoin:miter;stroke-opacity:1;font-family:Bitstream Vera Sans;-inkscape-font-specification:Bitstream Vera Sans"
       x="35.849812"
       y="455.38809"
       id="text3430"
       sodipodi:linespacing="125%"><tspan
         sodipodi:role="line"
         id="tspan3432"
         x="35.849812"
         y="455.38809">Web interface</tspan><tspan
         sodipodi:role="line"
         x="35.849812"
         y="477.88809"
         id="tspan3434">(Zope/Plone)</tspan></text>
    <text
       xml:space="preserve"
       style="font-size:18px;font-style:normal;font-variant:normal;font-weight:normal;font-stretch:normal;text-align:start;line-height:125%;writing-mode:lr-tb;text-anchor:start;fill:#000000;fill-opacity:1;stroke:none;stroke-width:1px;stroke-linecap:butt;stroke-linejoin:miter;stroke-opacity:1;font-family:Bitstream Vera Sans;-inkscape-font-specification:Bitstream Vera Sans"
       x="300.72867"
       y="68.070572"
       id="text3436"
       sodipodi:linespacing="125%"><tspan
         sodipodi:role="line"
         id="tspan3438"
         x="300.72867"
         y="68.070572">Processing system</tspan><tspan
         sodipodi:role="line"
         x="300.72867"
         y="90.570572"
         id="tspan3464">(Hermod)</tspan></text>
    <text
       xml:space="preserve"
       style="font-size:18px;font-style:normal;font-variant:normal;font-weight:normal;font-stretch:normal;text-align:start;line-height:125%;writing-mode:lr-tb;text-anchor:start;fill:#000000;fill-opacity:1;stroke:none;stroke-width:1px;stroke-linecap:butt;stroke-linejoin:miter;stroke-opacity:1;font-family:Bitstream Vera Sans;-inkscape-font-specification:Bitstream Vera Sans"
       x="456.53577"
       y="232.74814"
       id="text3440"
       sodipodi:linespacing="125%"><tspan
         sodipodi:role="line"
         x="456.53577"
         y="232.74814"
         id="tspan3444">Database server</tspan><tspan
         sodipodi:role="line"
         x="456.53577"
         y="255.24814"
         id="tspan3466">(MySQL)</tspan></text>
    <text
       xml:space="preserve"
       style="font-size:18px;font-style:normal;font-variant:normal;font-weight:normal;font-stretch:normal;text-align:start;line-height:125%;writing-mode:lr-tb;text-anchor:start;fill:#000000;fill-opacity:1;stroke:none;stroke-width:1px;stroke-linecap:butt;stroke-linejoin:miter;stroke-opacity:1;font-family:Bitstream Vera Sans;-inkscape-font-specification:Bitstream Vera Sans"
       x="778.7981"
       y="118.71481"
       id="text3448"
       sodipodi:linespacing="125%"><tspan
         sodipodi:role="line"
         id="tspan3450"
         x="778.7981"
         y="118.71481">File server</tspan><tspan
         sodipodi:role="line"
         x="778.7981"
         y="141.21481"
         id="tspan3502">(Linux)</tspan></text>
    <text
       xml:space="preserve"
       style="font-size:18px;font-style:normal;font-variant:normal;font-weight:normal;font-stretch:normal;text-align:start;line-height:125%;writing-mode:lr-tb;text-anchor:start;fill:#000000;fill-opacity:1;stroke:none;stroke-width:1px;stroke-linecap:butt;stroke-linejoin:miter;stroke-opacity:1;font-family:Bitstream Vera Sans;-inkscape-font-specification:Bitstream Vera Sans"
       x="640.31769"
       y="451.3356"
       id="text3452"
       sodipodi:linespacing="125%"><tspan
         sodipodi:role="line"
         x="640.31769"
         y="451.3356"
         id="tspan3494">Cluster of processing nodes</tspan><tspan
         sodipodi:role="line"
         x="640.31769"
         y="473.8356"
         id="tspan3504">(Linux)</tspan></text>
    <text
       xml:space="preserve"
       style="font-size:18px;font-style:normal;font-variant:normal;font-weight:normal;font-stretch:normal;text-align:start;line-height:125%;writing-mode:lr-tb;text-anchor:start;fill:#000000;fill-opacity:1;stroke:none;stroke-width:1px;stroke-linecap:butt;stroke-linejoin:miter;stroke-opacity:1;font-family:Bitstream Vera Sans;-inkscape-font-specification:Bitstream Vera Sans"
       x="358.13129"
       y="378.48285"
       id="text3456"
       sodipodi:linespacing="125%"><tspan
         sodipodi:role="line"
         x="358.13129"
         y="378.48285"
         id="tspan3468">Cluster</tspan><tspan
         sodipodi:role="line"
         x="358.13129"
         y="400.98285"
         id="tspan3506">managing</tspan><tspan
         sodipodi:role="line"
         x="358.13129"
         y="423.48285"
         id="tspan3460">system</tspan><tspan
         sodipodi:role="line"
         x="358.13129"
         y="445.98285"
         id="tspan3476">(Torque/Maui)</tspan></text>
  </g>
</svg>
